<?xml version="1.0" encoding="utf-8"?>
<!-- Generator: Adobe Illustrator 17.1.0, SVG Export Plug-In . SVG Version: 6.00 Build 0)  -->
<!DOCTYPE svg PUBLIC "-//W3C//DTD SVG 1.1//EN" "http://www.w3.org/Graphics/SVG/1.1/DTD/svg11.dtd">
<svg version="1.1" id="Layer_1" xmlns="http://www.w3.org/2000/svg" xmlns:xlink="http://www.w3.org/1999/xlink" x="0px" y="0px"
	 viewBox="0 0 42.6 41.1" enable-background="new 0 0 42.6 41.1" xml:space="preserve">
<g>
	<path d="M38.2,40.4c-0.8,0-1.6-0.3-2.1-0.9l-8-8c-2.7,1.9-6,2.9-9.4,2.9C9.6,34.4,2.2,27,2.2,17.9S9.6,1.4,18.7,1.4
		s16.5,7.4,16.5,16.5c0,3.3-1,6.6-2.9,9.4l8,8c0.5,0.5,0.9,1.3,0.9,2.1C41.2,39,39.8,40.4,38.2,40.4z M18.7,7.4
		c-5.8,0-10.5,4.7-10.5,10.5s4.7,10.5,10.5,10.5s10.5-4.7,10.5-10.5S24.5,7.4,18.7,7.4z"/>
</g>
</svg>
